<svg width="400" height="400" viewBox="0 0 400 400" fill="none" xmlns="http://www.w3.org/2000/svg">
  <!-- Film Strip -->
  <rect x="100" y="220" width="200" height="80" rx="8" stroke="#000" stroke-width="6" fill="none"/>
  <line x1="100" y1="240" x2="300" y2="240" stroke="#000" stroke-width="6"/>
  <line x1="100" y1="260" x2="300" y2="260" stroke="#000" stroke-width="6"/>
  <line x1="100" y1="280" x2="300" y2="280" stroke="#000" stroke-width="6"/>
  
  <!-- Film Strip Holes -->
  <rect x="110" y="226" width="8" height="8" fill="#000"/>
  <rect x="282" y="226" width="8" height="8" fill="#000"/>
  <rect x="110" y="246" width="8" height="8" fill="#000"/>
  <rect x="282" y="246" width="8" height="8" fill="#000"/>
  <rect x="110" y="266" width="8" height="8" fill="#000"/>
  <rect x="282" y="266" width="8" height="8" fill="#000"/>
  <rect x="110" y="286" width="8" height="8" fill="#000"/>
  <rect x="282" y="286" width="8" height="8" fill="#000"/>
  
  <!-- Camera Body -->
  <rect x="130" y="120" width="140" height="100" rx="12" stroke="#000" stroke-width="6" fill="none"/>
  
  <!-- Camera Top -->
  <path d="M160 120 L160 100 L240 100 L240 120" stroke="#000" stroke-width="6" fill="none"/>
  
  <!-- Lens Circle -->
  <circle cx="200" cy="170" r="35" stroke="#000" stroke-width="6" fill="none"/>
  <circle cx="200" cy="170" r="25" stroke="#000" stroke-width="4" fill="none"/>
  <circle cx="200" cy="170" r="15" stroke="#000" stroke-width="3" fill="none"/>
  
  <!-- Sparkle/Flash -->
  <path d="M255 95 L260 105 L270 110 L260 115 L255 125 L250 115 L240 110 L250 105 Z" fill="#000"/>
  
  <!-- Viewfinder -->
  <rect x="215" y="135" width="20" height="15" rx="3" stroke="#000" stroke-width="4" fill="none"/>
  
  <!-- Flash Button -->
  <circle cx="235" cy="175" r="5" fill="#000"/>
  
  <!-- Text -->
  <text x="200" y="340" font-family="Arial, sans-serif" font-size="36" font-weight="bold" text-anchor="middle" fill="#000">PICBOOTH</text>
</svg>
