<svg width="200" height="200" viewBox="0 0 200 200" fill="none" xmlns="http://www.w3.org/2000/svg">
  <!-- Film Strip -->
  <rect x="40" y="120" width="120" height="50" rx="6" stroke="#2C3E50" stroke-width="4" fill="none"/>
  <line x1="40" y1="135" x2="160" y2="135" stroke="#2C3E50" stroke-width="4"/>
  <line x1="40" y1="150" x2="160" y2="150" stroke="#2C3E50" stroke-width="4"/>
  
  <!-- Film Holes -->
  <rect x="48" y="125" width="6" height="6" fill="#2C3E50"/>
  <rect x="146" y="125" width="6" height="6" fill="#2C3E50"/>
  <rect x="48" y="159" width="6" height="6" fill="#2C3E50"/>
  <rect x="146" y="159" width="6" height="6" fill="#2C3E50"/>
  
  <!-- Camera Body -->
  <rect x="60" y="40" width="80" height="70" rx="8" stroke="#2C3E50" stroke-width="4" fill="#FFF"/>
  
  <!-- Lens -->
  <circle cx="100" cy="75" r="22" stroke="#2C3E50" stroke-width="4" fill="none"/>
  <circle cx="100" cy="75" r="15" stroke="#2C3E50" stroke-width="3" fill="none"/>
  <circle cx="100" cy="75" r="10" stroke="#2C3E50" stroke-width="2" fill="none"/>
  
  <!-- Sparkle -->
  <path d="M125 30 L128 35 L133 38 L128 41 L125 46 L122 41 L117 38 L122 35 Z" fill="#FF00CC"/>
  
  <!-- Viewfinder -->
  <rect x="108" y="52" width="12" height="10" rx="2" stroke="#2C3E50" stroke-width="3" fill="none"/>
</svg>
